<svg width="676" height="239" viewBox="0 0 676 239" fill="none" xmlns="http://www.w3.org/2000/svg">
<circle cx="119.5" cy="119.5" r="117.5" stroke="#222222" stroke-width="4"/>
<circle cx="119.5" cy="119.5" r="115.5" fill="#AA8042"/>
<mask id="path-3-inside-1_14_203" fill="white">
<path d="M123.496 49.0635C127.717 49.2399 131.841 49.7871 135.838 50.6738C135.746 51.0398 135.723 51.4197 135.772 51.7939C135.824 52.1845 135.951 52.5612 136.148 52.9023C136.345 53.2435 136.608 53.5424 136.921 53.7822C137.233 54.022 137.59 54.1979 137.971 54.2998C138.351 54.4017 138.748 54.4284 139.139 54.377C139.529 54.3255 139.906 54.1969 140.247 54C140.588 53.803 140.887 53.541 141.127 53.2285C141.358 52.928 141.526 52.5858 141.63 52.2217C145.628 53.4762 149.473 55.0778 153.129 56.9902C152.946 57.3197 152.825 57.6798 152.775 58.0537C152.724 58.4443 152.751 58.8412 152.853 59.2217C152.955 59.6022 153.13 59.959 153.37 60.2715C153.61 60.584 153.909 60.846 154.25 61.043C154.591 61.24 154.968 61.3685 155.358 61.4199C155.749 61.4713 156.146 61.4447 156.526 61.3428C156.907 61.2408 157.264 61.065 157.576 60.8252C157.874 60.5966 158.124 60.3126 158.317 59.9912C161.831 62.2286 165.132 64.7693 168.186 67.5752C167.928 67.8438 167.722 68.157 167.579 68.501C167.428 68.8649 167.351 69.2555 167.351 69.6494C167.351 70.0431 167.428 70.4331 167.579 70.7969C167.73 71.1608 167.951 71.4919 168.229 71.7705C168.508 72.0491 168.839 72.2701 169.203 72.4209C169.567 72.5715 169.957 72.6494 170.351 72.6494C170.744 72.6494 171.135 72.5716 171.499 72.4209C171.843 72.2784 172.155 72.0707 172.424 71.8135C175.23 74.8671 177.77 78.1683 180.008 81.6816C179.686 81.8752 179.403 82.126 179.175 82.4238C178.935 82.7364 178.759 83.0931 178.657 83.4736C178.555 83.8542 178.529 84.251 178.58 84.6416C178.632 85.0322 178.76 85.4088 178.957 85.75C179.154 86.0911 179.416 86.3901 179.729 86.6299C180.041 86.8697 180.398 87.0455 180.778 87.1475C181.159 87.2494 181.556 87.276 181.946 87.2246C182.32 87.1754 182.679 87.0529 183.009 86.8701C184.921 90.5264 186.523 94.3709 187.777 98.3691C187.413 98.4727 187.072 98.6426 186.771 98.873C186.459 99.1128 186.197 99.4119 186 99.7529C185.803 100.094 185.674 100.471 185.623 100.861C185.572 101.252 185.598 101.649 185.7 102.029C185.802 102.41 185.978 102.767 186.218 103.079C186.458 103.392 186.756 103.655 187.098 103.852C187.439 104.049 187.816 104.176 188.206 104.228C188.58 104.277 188.959 104.253 189.325 104.161C190.212 108.158 190.759 112.282 190.936 116.503C190.564 116.511 190.196 116.586 189.852 116.729C189.488 116.879 189.157 117.1 188.879 117.379C188.6 117.657 188.379 117.988 188.229 118.352C188.078 118.716 188 119.106 188 119.5C188 119.894 188.078 120.284 188.229 120.648C188.379 121.012 188.6 121.343 188.879 121.621C189.157 121.9 189.488 122.121 189.852 122.271C190.196 122.414 190.564 122.488 190.936 122.496C190.759 126.717 190.212 130.841 189.325 134.838C188.96 134.746 188.58 134.723 188.206 134.772C187.816 134.824 187.439 134.951 187.098 135.148C186.756 135.345 186.458 135.608 186.218 135.921C185.978 136.233 185.802 136.59 185.7 136.971C185.598 137.351 185.572 137.748 185.623 138.139C185.674 138.529 185.803 138.906 186 139.247C186.197 139.588 186.459 139.887 186.771 140.127C187.072 140.357 187.414 140.526 187.777 140.63C186.523 144.628 184.921 148.473 183.009 152.129C182.68 151.946 182.32 151.825 181.946 151.775C181.556 151.724 181.159 151.751 180.778 151.853C180.398 151.955 180.041 152.13 179.729 152.37C179.416 152.61 179.154 152.909 178.957 153.25C178.76 153.591 178.632 153.968 178.58 154.358C178.529 154.749 178.555 155.146 178.657 155.526C178.759 155.907 178.935 156.264 179.175 156.576C179.403 156.874 179.687 157.124 180.008 157.317C177.77 160.831 175.23 164.132 172.424 167.186C172.155 166.929 171.843 166.721 171.499 166.579C171.135 166.428 170.745 166.351 170.351 166.351C169.957 166.351 169.567 166.428 169.203 166.579C168.839 166.73 168.508 166.951 168.229 167.229C167.951 167.508 167.73 167.839 167.579 168.203C167.428 168.567 167.351 168.957 167.351 169.351C167.351 169.745 167.428 170.135 167.579 170.499C167.721 170.843 167.929 171.155 168.186 171.424C165.132 174.23 161.831 176.77 158.317 179.008C158.124 178.687 157.874 178.403 157.576 178.175C157.264 177.935 156.907 177.759 156.526 177.657C156.146 177.555 155.749 177.529 155.358 177.58C154.968 177.632 154.591 177.76 154.25 177.957C153.909 178.154 153.61 178.416 153.37 178.729C153.13 179.041 152.955 179.398 152.853 179.778C152.751 180.159 152.724 180.556 152.775 180.946C152.825 181.32 152.946 181.68 153.129 182.009C149.473 183.921 145.628 185.523 141.63 186.777C141.526 186.414 141.357 186.072 141.127 185.771C140.887 185.459 140.588 185.197 140.247 185C139.906 184.803 139.529 184.675 139.139 184.623C138.748 184.572 138.351 184.598 137.971 184.7C137.59 184.802 137.233 184.978 136.921 185.218C136.608 185.458 136.345 185.756 136.148 186.098C135.951 186.439 135.824 186.816 135.772 187.206C135.723 187.58 135.746 187.96 135.838 188.325C131.841 189.212 127.717 189.759 123.496 189.936C123.488 189.564 123.414 189.196 123.271 188.852C123.121 188.488 122.9 188.157 122.621 187.879C122.343 187.6 122.012 187.379 121.648 187.229C121.284 187.078 120.894 187 120.5 187C120.106 187 119.716 187.078 119.352 187.229C118.988 187.379 118.657 187.6 118.379 187.879C118.1 188.157 117.879 188.488 117.729 188.852C117.586 189.196 117.511 189.564 117.503 189.936C113.282 189.759 109.158 189.212 105.161 188.325C105.253 187.959 105.277 187.58 105.228 187.206C105.176 186.816 105.049 186.439 104.852 186.098C104.655 185.756 104.392 185.458 104.079 185.218C103.767 184.978 103.41 184.802 103.029 184.7C102.649 184.598 102.252 184.572 101.861 184.623C101.471 184.675 101.094 184.803 100.753 185C100.412 185.197 100.113 185.459 99.873 185.771C99.6426 186.072 99.4726 186.413 99.3691 186.777C95.3709 185.523 91.5264 183.921 87.8701 182.009C88.0529 181.679 88.1754 181.32 88.2246 180.946C88.276 180.556 88.2494 180.159 88.1475 179.778C88.0455 179.398 87.8697 179.041 87.6299 178.729C87.3901 178.416 87.0911 178.154 86.75 177.957C86.4088 177.76 86.0322 177.632 85.6416 177.58C85.251 177.529 84.8542 177.555 84.4736 177.657C84.0931 177.759 83.7364 177.935 83.4238 178.175C83.126 178.403 82.8752 178.686 82.6816 179.008C79.1683 176.77 75.8671 174.23 72.8135 171.424C73.0707 171.155 73.2784 170.843 73.4209 170.499C73.5716 170.135 73.6494 169.745 73.6494 169.351C73.6494 168.957 73.5715 168.567 73.4209 168.203C73.2701 167.839 73.0491 167.508 72.7705 167.229C72.4919 166.951 72.1609 166.73 71.7969 166.579C71.4331 166.428 71.0431 166.351 70.6494 166.351C70.2555 166.351 69.8649 166.428 69.501 166.579C69.157 166.722 68.8438 166.928 68.5752 167.186C65.7693 164.132 63.2286 160.831 60.9912 157.317C61.3126 157.124 61.5966 156.874 61.8252 156.576C62.065 156.264 62.2408 155.907 62.3428 155.526C62.4447 155.146 62.4713 154.749 62.4199 154.358C62.3685 153.968 62.24 153.591 62.043 153.25C61.846 152.909 61.584 152.61 61.2715 152.37C60.959 152.13 60.6022 151.955 60.2217 151.853C59.8412 151.751 59.4443 151.724 59.0537 151.775C58.6798 151.825 58.3197 151.946 57.9902 152.129C56.0778 148.473 54.4762 144.628 53.2217 140.63C53.5858 140.526 53.928 140.358 54.2285 140.127C54.541 139.887 54.803 139.588 55 139.247C55.1969 138.906 55.3255 138.529 55.377 138.139C55.4284 137.748 55.4017 137.351 55.2998 136.971C55.1979 136.59 55.022 136.233 54.7822 135.921C54.5424 135.608 54.2435 135.345 53.9023 135.148C53.5612 134.951 53.1845 134.824 52.7939 134.772C52.4197 134.723 52.0398 134.746 51.6738 134.838C50.7871 130.841 50.2409 126.717 50.0645 122.496C50.4364 122.488 50.8043 122.414 51.1484 122.271C51.5123 122.121 51.8426 121.9 52.1211 121.621C52.3996 121.343 52.6207 121.012 52.7715 120.648C52.9222 120.284 53 119.894 53 119.5C53 119.106 52.9222 118.716 52.7715 118.352C52.6207 117.988 52.3996 117.657 52.1211 117.379C51.8426 117.1 51.5123 116.879 51.1484 116.729C50.8043 116.586 50.4364 116.511 50.0645 116.503C50.241 112.283 50.787 108.158 51.6738 104.161C52.0398 104.253 52.4196 104.277 52.7939 104.228C53.1845 104.176 53.5612 104.049 53.9023 103.852C54.2435 103.655 54.5424 103.392 54.7822 103.079C55.022 102.767 55.1979 102.41 55.2998 102.029C55.4017 101.649 55.4284 101.252 55.377 100.861C55.3255 100.471 55.1969 100.094 55 99.7529C54.803 99.4119 54.541 99.1128 54.2285 98.873C53.9279 98.6424 53.5859 98.4726 53.2217 98.3691C54.4762 94.3709 56.0778 90.5264 57.9902 86.8701C58.3198 87.0531 58.6797 87.1754 59.0537 87.2246C59.4443 87.276 59.8412 87.2494 60.2217 87.1475C60.6022 87.0455 60.959 86.8697 61.2715 86.6299C61.584 86.3901 61.846 86.0911 62.043 85.75C62.24 85.4088 62.3685 85.0322 62.4199 84.6416C62.4713 84.251 62.4447 83.8542 62.3428 83.4736C62.2408 83.0931 62.065 82.7364 61.8252 82.4238C61.5965 82.1258 61.3128 81.8752 60.9912 81.6816C63.2286 78.1683 65.7693 74.8671 68.5752 71.8135C68.8439 72.071 69.1568 72.2783 69.501 72.4209C69.8649 72.5716 70.2555 72.6494 70.6494 72.6494C71.0431 72.6494 71.4331 72.5715 71.7969 72.4209C72.1608 72.2701 72.4919 72.0491 72.7705 71.7705C73.0491 71.4919 73.2701 71.1609 73.4209 70.7969C73.5715 70.4331 73.6494 70.0431 73.6494 69.6494C73.6494 69.2555 73.5716 68.8649 73.4209 68.501C73.2783 68.1568 73.071 67.8439 72.8135 67.5752C75.8671 64.7693 79.1683 62.2286 82.6816 59.9912C82.8752 60.3128 83.1258 60.5965 83.4238 60.8252C83.7364 61.065 84.0931 61.2408 84.4736 61.3428C84.8542 61.4447 85.251 61.4713 85.6416 61.4199C86.0322 61.3685 86.4088 61.24 86.75 61.043C87.0911 60.846 87.3901 60.584 87.6299 60.2715C87.8697 59.959 88.0455 59.6022 88.1475 59.2217C88.2494 58.8412 88.276 58.4443 88.2246 58.0537C88.1754 57.6797 88.0531 57.3198 87.8701 56.9902C91.5264 55.0778 95.3709 53.4762 99.3691 52.2217C99.4726 52.5859 99.6424 52.9279 99.873 53.2285C100.113 53.541 100.412 53.803 100.753 54C101.094 54.1969 101.471 54.3255 101.861 54.377C102.252 54.4284 102.649 54.4017 103.029 54.2998C103.41 54.1979 103.767 54.022 104.079 53.7822C104.392 53.5424 104.655 53.2435 104.852 52.9023C105.049 52.5612 105.176 52.1845 105.228 51.7939C105.277 51.4196 105.253 51.0398 105.161 50.6738C109.158 49.787 113.283 49.24 117.503 49.0635C117.511 49.4358 117.586 49.804 117.729 50.1484C117.879 50.5123 118.1 50.8426 118.379 51.1211C118.657 51.3996 118.988 51.6207 119.352 51.7715C119.716 51.9223 120.106 52 120.5 52C120.894 52 121.284 51.9222 121.648 51.7715C122.012 51.6207 122.343 51.3996 122.621 51.1211C122.9 50.8426 123.121 50.5123 123.271 50.1484C123.414 49.804 123.488 49.4358 123.496 49.0635Z"/>
</mask>
<path d="M123.496 49.0635C127.717 49.2399 131.841 49.7871 135.838 50.6738C135.746 51.0398 135.723 51.4197 135.772 51.7939C135.824 52.1845 135.951 52.5612 136.148 52.9023C136.345 53.2435 136.608 53.5424 136.921 53.7822C137.233 54.022 137.59 54.1979 137.971 54.2998C138.351 54.4017 138.748 54.4284 139.139 54.377C139.529 54.3255 139.906 54.1969 140.247 54C140.588 53.803 140.887 53.541 141.127 53.2285C141.358 52.928 141.526 52.5858 141.63 52.2217C145.628 53.4762 149.473 55.0778 153.129 56.9902C152.946 57.3197 152.825 57.6798 152.775 58.0537C152.724 58.4443 152.751 58.8412 152.853 59.2217C152.955 59.6022 153.13 59.959 153.37 60.2715C153.61 60.584 153.909 60.846 154.25 61.043C154.591 61.24 154.968 61.3685 155.358 61.4199C155.749 61.4713 156.146 61.4447 156.526 61.3428C156.907 61.2408 157.264 61.065 157.576 60.8252C157.874 60.5966 158.124 60.3126 158.317 59.9912C161.831 62.2286 165.132 64.7693 168.186 67.5752C167.928 67.8438 167.722 68.157 167.579 68.501C167.428 68.8649 167.351 69.2555 167.351 69.6494C167.351 70.0431 167.428 70.4331 167.579 70.7969C167.73 71.1608 167.951 71.4919 168.229 71.7705C168.508 72.0491 168.839 72.2701 169.203 72.4209C169.567 72.5715 169.957 72.6494 170.351 72.6494C170.744 72.6494 171.135 72.5716 171.499 72.4209C171.843 72.2784 172.155 72.0707 172.424 71.8135C175.23 74.8671 177.77 78.1683 180.008 81.6816C179.686 81.8752 179.403 82.126 179.175 82.4238C178.935 82.7364 178.759 83.0931 178.657 83.4736C178.555 83.8542 178.529 84.251 178.58 84.6416C178.632 85.0322 178.76 85.4088 178.957 85.75C179.154 86.0911 179.416 86.3901 179.729 86.6299C180.041 86.8697 180.398 87.0455 180.778 87.1475C181.159 87.2494 181.556 87.276 181.946 87.2246C182.32 87.1754 182.679 87.0529 183.009 86.8701C184.921 90.5264 186.523 94.3709 187.777 98.3691C187.413 98.4727 187.072 98.6426 186.771 98.873C186.459 99.1128 186.197 99.4119 186 99.7529C185.803 100.094 185.674 100.471 185.623 100.861C185.572 101.252 185.598 101.649 185.7 102.029C185.802 102.41 185.978 102.767 186.218 103.079C186.458 103.392 186.756 103.655 187.098 103.852C187.439 104.049 187.816 104.176 188.206 104.228C188.58 104.277 188.959 104.253 189.325 104.161C190.212 108.158 190.759 112.282 190.936 116.503C190.564 116.511 190.196 116.586 189.852 116.729C189.488 116.879 189.157 117.1 188.879 117.379C188.6 117.657 188.379 117.988 188.229 118.352C188.078 118.716 188 119.106 188 119.5C188 119.894 188.078 120.284 188.229 120.648C188.379 121.012 188.6 121.343 188.879 121.621C189.157 121.9 189.488 122.121 189.852 122.271C190.196 122.414 190.564 122.488 190.936 122.496C190.759 126.717 190.212 130.841 189.325 134.838C188.96 134.746 188.58 134.723 188.206 134.772C187.816 134.824 187.439 134.951 187.098 135.148C186.756 135.345 186.458 135.608 186.218 135.921C185.978 136.233 185.802 136.59 185.7 136.971C185.598 137.351 185.572 137.748 185.623 138.139C185.674 138.529 185.803 138.906 186 139.247C186.197 139.588 186.459 139.887 186.771 140.127C187.072 140.357 187.414 140.526 187.777 140.63C186.523 144.628 184.921 148.473 183.009 152.129C182.68 151.946 182.32 151.825 181.946 151.775C181.556 151.724 181.159 151.751 180.778 151.853C180.398 151.955 180.041 152.13 179.729 152.37C179.416 152.61 179.154 152.909 178.957 153.25C178.76 153.591 178.632 153.968 178.58 154.358C178.529 154.749 178.555 155.146 178.657 155.526C178.759 155.907 178.935 156.264 179.175 156.576C179.403 156.874 179.687 157.124 180.008 157.317C177.77 160.831 175.23 164.132 172.424 167.186C172.155 166.929 171.843 166.721 171.499 166.579C171.135 166.428 170.745 166.351 170.351 166.351C169.957 166.351 169.567 166.428 169.203 166.579C168.839 166.73 168.508 166.951 168.229 167.229C167.951 167.508 167.73 167.839 167.579 168.203C167.428 168.567 167.351 168.957 167.351 169.351C167.351 169.745 167.428 170.135 167.579 170.499C167.721 170.843 167.929 171.155 168.186 171.424C165.132 174.23 161.831 176.77 158.317 179.008C158.124 178.687 157.874 178.403 157.576 178.175C157.264 177.935 156.907 177.759 156.526 177.657C156.146 177.555 155.749 177.529 155.358 177.58C154.968 177.632 154.591 177.76 154.25 177.957C153.909 178.154 153.61 178.416 153.37 178.729C153.13 179.041 152.955 179.398 152.853 179.778C152.751 180.159 152.724 180.556 152.775 180.946C152.825 181.32 152.946 181.68 153.129 182.009C149.473 183.921 145.628 185.523 141.63 186.777C141.526 186.414 141.357 186.072 141.127 185.771C140.887 185.459 140.588 185.197 140.247 185C139.906 184.803 139.529 184.675 139.139 184.623C138.748 184.572 138.351 184.598 137.971 184.7C137.59 184.802 137.233 184.978 136.921 185.218C136.608 185.458 136.345 185.756 136.148 186.098C135.951 186.439 135.824 186.816 135.772 187.206C135.723 187.58 135.746 187.96 135.838 188.325C131.841 189.212 127.717 189.759 123.496 189.936C123.488 189.564 123.414 189.196 123.271 188.852C123.121 188.488 122.9 188.157 122.621 187.879C122.343 187.6 122.012 187.379 121.648 187.229C121.284 187.078 120.894 187 120.5 187C120.106 187 119.716 187.078 119.352 187.229C118.988 187.379 118.657 187.6 118.379 187.879C118.1 188.157 117.879 188.488 117.729 188.852C117.586 189.196 117.511 189.564 117.503 189.936C113.282 189.759 109.158 189.212 105.161 188.325C105.253 187.959 105.277 187.58 105.228 187.206C105.176 186.816 105.049 186.439 104.852 186.098C104.655 185.756 104.392 185.458 104.079 185.218C103.767 184.978 103.41 184.802 103.029 184.7C102.649 184.598 102.252 184.572 101.861 184.623C101.471 184.675 101.094 184.803 100.753 185C100.412 185.197 100.113 185.459 99.873 185.771C99.6426 186.072 99.4726 186.413 99.3691 186.777C95.3709 185.523 91.5264 183.921 87.8701 182.009C88.0529 181.679 88.1754 181.32 88.2246 180.946C88.276 180.556 88.2494 180.159 88.1475 179.778C88.0455 179.398 87.8697 179.041 87.6299 178.729C87.3901 178.416 87.0911 178.154 86.75 177.957C86.4088 177.76 86.0322 177.632 85.6416 177.58C85.251 177.529 84.8542 177.555 84.4736 177.657C84.0931 177.759 83.7364 177.935 83.4238 178.175C83.126 178.403 82.8752 178.686 82.6816 179.008C79.1683 176.77 75.8671 174.23 72.8135 171.424C73.0707 171.155 73.2784 170.843 73.4209 170.499C73.5716 170.135 73.6494 169.745 73.6494 169.351C73.6494 168.957 73.5715 168.567 73.4209 168.203C73.2701 167.839 73.0491 167.508 72.7705 167.229C72.4919 166.951 72.1609 166.73 71.7969 166.579C71.4331 166.428 71.0431 166.351 70.6494 166.351C70.2555 166.351 69.8649 166.428 69.501 166.579C69.157 166.722 68.8438 166.928 68.5752 167.186C65.7693 164.132 63.2286 160.831 60.9912 157.317C61.3126 157.124 61.5966 156.874 61.8252 156.576C62.065 156.264 62.2408 155.907 62.3428 155.526C62.4447 155.146 62.4713 154.749 62.4199 154.358C62.3685 153.968 62.24 153.591 62.043 153.25C61.846 152.909 61.584 152.61 61.2715 152.37C60.959 152.13 60.6022 151.955 60.2217 151.853C59.8412 151.751 59.4443 151.724 59.0537 151.775C58.6798 151.825 58.3197 151.946 57.9902 152.129C56.0778 148.473 54.4762 144.628 53.2217 140.63C53.5858 140.526 53.928 140.358 54.2285 140.127C54.541 139.887 54.803 139.588 55 139.247C55.1969 138.906 55.3255 138.529 55.377 138.139C55.4284 137.748 55.4017 137.351 55.2998 136.971C55.1979 136.59 55.022 136.233 54.7822 135.921C54.5424 135.608 54.2435 135.345 53.9023 135.148C53.5612 134.951 53.1845 134.824 52.7939 134.772C52.4197 134.723 52.0398 134.746 51.6738 134.838C50.7871 130.841 50.2409 126.717 50.0645 122.496C50.4364 122.488 50.8043 122.414 51.1484 122.271C51.5123 122.121 51.8426 121.9 52.1211 121.621C52.3996 121.343 52.6207 121.012 52.7715 120.648C52.9222 120.284 53 119.894 53 119.5C53 119.106 52.9222 118.716 52.7715 118.352C52.6207 117.988 52.3996 117.657 52.1211 117.379C51.8426 117.1 51.5123 116.879 51.1484 116.729C50.8043 116.586 50.4364 116.511 50.0645 116.503C50.241 112.283 50.787 108.158 51.6738 104.161C52.0398 104.253 52.4196 104.277 52.7939 104.228C53.1845 104.176 53.5612 104.049 53.9023 103.852C54.2435 103.655 54.5424 103.392 54.7822 103.079C55.022 102.767 55.1979 102.41 55.2998 102.029C55.4017 101.649 55.4284 101.252 55.377 100.861C55.3255 100.471 55.1969 100.094 55 99.7529C54.803 99.4119 54.541 99.1128 54.2285 98.873C53.9279 98.6424 53.5859 98.4726 53.2217 98.3691C54.4762 94.3709 56.0778 90.5264 57.9902 86.8701C58.3198 87.0531 58.6797 87.1754 59.0537 87.2246C59.4443 87.276 59.8412 87.2494 60.2217 87.1475C60.6022 87.0455 60.959 86.8697 61.2715 86.6299C61.584 86.3901 61.846 86.0911 62.043 85.75C62.24 85.4088 62.3685 85.0322 62.4199 84.6416C62.4713 84.251 62.4447 83.8542 62.3428 83.4736C62.2408 83.0931 62.065 82.7364 61.8252 82.4238C61.5965 82.1258 61.3128 81.8752 60.9912 81.6816C63.2286 78.1683 65.7693 74.8671 68.5752 71.8135C68.8439 72.071 69.1568 72.2783 69.501 72.4209C69.8649 72.5716 70.2555 72.6494 70.6494 72.6494C71.0431 72.6494 71.4331 72.5715 71.7969 72.4209C72.1608 72.2701 72.4919 72.0491 72.7705 71.7705C73.0491 71.4919 73.2701 71.1609 73.4209 70.7969C73.5715 70.4331 73.6494 70.0431 73.6494 69.6494C73.6494 69.2555 73.5716 68.8649 73.4209 68.501C73.2783 68.1568 73.071 67.8439 72.8135 67.5752C75.8671 64.7693 79.1683 62.2286 82.6816 59.9912C82.8752 60.3128 83.1258 60.5965 83.4238 60.8252C83.7364 61.065 84.0931 61.2408 84.4736 61.3428C84.8542 61.4447 85.251 61.4713 85.6416 61.4199C86.0322 61.3685 86.4088 61.24 86.75 61.043C87.0911 60.846 87.3901 60.584 87.6299 60.2715C87.8697 59.959 88.0455 59.6022 88.1475 59.2217C88.2494 58.8412 88.276 58.4443 88.2246 58.0537C88.1754 57.6797 88.0531 57.3198 87.8701 56.9902C91.5264 55.0778 95.3709 53.4762 99.3691 52.2217C99.4726 52.5859 99.6424 52.9279 99.873 53.2285C100.113 53.541 100.412 53.803 100.753 54C101.094 54.1969 101.471 54.3255 101.861 54.377C102.252 54.4284 102.649 54.4017 103.029 54.2998C103.41 54.1979 103.767 54.022 104.079 53.7822C104.392 53.5424 104.655 53.2435 104.852 52.9023C105.049 52.5612 105.176 52.1845 105.228 51.7939C105.277 51.4196 105.253 51.0398 105.161 50.6738C109.158 49.787 113.283 49.24 117.503 49.0635C117.511 49.4358 117.586 49.804 117.729 50.1484C117.879 50.5123 118.1 50.8426 118.379 51.1211C118.657 51.3996 118.988 51.6207 119.352 51.7715C119.716 51.9223 120.106 52 120.5 52C120.894 52 121.284 51.9222 121.648 51.7715C122.012 51.6207 122.343 51.3996 122.621 51.1211C122.9 50.8426 123.121 50.5123 123.271 50.1484C123.414 49.804 123.488 49.4358 123.496 49.0635Z" fill="#B99154" stroke="#2A2A2A" stroke-width="8" mask="url(#path-3-inside-1_14_203)"/>
<circle cx="120.5" cy="119.5" r="43.5" fill="#2A2A2A" stroke="#2A2A2A" stroke-width="24"/>
<path d="M116 9H124V29H116V9Z" fill="#2A2A2A"/>
<path d="M116 210H124V230H116V210Z" fill="#2A2A2A"/>
<path d="M230.5 115.5V123.5H210.5V115.5H230.5Z" fill="#2A2A2A"/>
<path d="M29.5 115.5V123.5H9.5L9.5 115.5H29.5Z" fill="#2A2A2A"/>
<path d="M152.463 225.2L144.736 227.27L139.559 207.952L147.287 205.881L152.463 225.2Z" fill="#2A2A2A"/>
<path d="M100.441 31.0484L92.7132 33.119L87.5368 13.8005L95.2642 11.7299L100.441 31.0484Z" fill="#2A2A2A"/>
<path d="M95.2642 227.27L87.5368 225.2L92.7132 205.881L100.441 207.952L95.2642 227.27Z" fill="#2A2A2A"/>
<path d="M147.287 33.119L139.559 31.0484L144.736 11.7299L152.463 13.8005L147.287 33.119Z" fill="#2A2A2A"/>
<path d="M68.2141 217.196L61.2859 213.196L71.2859 195.875L78.2141 199.875L68.2141 217.196Z" fill="#2A2A2A"/>
<path d="M168.714 43.1247L161.786 39.1247L171.786 21.8042L178.714 25.8042L168.714 43.1247Z" fill="#2A2A2A"/>
<path d="M44.6931 200.464L39.0363 194.807L53.1784 180.665L58.8353 186.322L44.6931 200.464Z" fill="#2A2A2A"/>
<path d="M186.822 58.3353L181.165 52.6784L195.307 38.5363L200.964 44.1931L186.822 58.3353Z" fill="#2A2A2A"/>
<path d="M26.3042 178.214L22.3042 171.286L39.6247 161.286L43.6247 168.214L26.3042 178.214Z" fill="#2A2A2A"/>
<path d="M200.375 77.7141L196.375 70.7859L213.696 60.7859L217.696 67.7141L200.375 77.7141Z" fill="#2A2A2A"/>
<path d="M14.3005 151.963L12.2299 144.236L31.5484 139.059L33.619 146.787L14.3005 151.963Z" fill="#2A2A2A"/>
<path d="M208.452 99.9406L206.381 92.2132L225.7 87.0368L227.77 94.7642L208.452 99.9406Z" fill="#2A2A2A"/>
<path d="M12.2299 94.7642L14.3005 87.0368L33.619 92.2132L31.5484 99.9406L12.2299 94.7642Z" fill="#2A2A2A"/>
<path d="M206.381 146.787L208.452 139.059L227.77 144.236L225.7 151.963L206.381 146.787Z" fill="#2A2A2A"/>
<path d="M22.3042 67.7141L26.3042 60.7859L43.6247 70.7859L39.6247 77.7141L22.3042 67.7141Z" fill="#2A2A2A"/>
<path d="M196.375 168.214L200.375 161.286L217.696 171.286L213.696 178.214L196.375 168.214Z" fill="#2A2A2A"/>
<path d="M39.0363 44.1931L44.6931 38.5363L58.8353 52.6784L53.1784 58.3352L39.0363 44.1931Z" fill="#2A2A2A"/>
<path d="M181.165 186.322L186.822 180.665L200.964 194.807L195.307 200.464L181.165 186.322Z" fill="#2A2A2A"/>
<path d="M61.2859 25.8042L68.2141 21.8042L78.2141 39.1247L71.2859 43.1247L61.2859 25.8042Z" fill="#2A2A2A"/>
<path d="M161.786 199.875L168.714 195.875L178.714 213.196L171.786 217.196L161.786 199.875Z" fill="#2A2A2A"/>
<path d="M121.8 135.4C119.133 135.4 116.7 134.95 114.5 134.05C112.333 133.117 110.467 131.767 108.9 130C107.4 128.267 106.283 126.3 105.55 124.1C104.85 121.867 104.5 119.567 104.5 117.2C104.5 114.433 104.933 111.933 105.8 109.7C106.7 107.433 107.933 105.5 109.5 103.9C111.1 102.267 112.983 101 115.15 100.1C117.35 99.2 119.733 98.75 122.3 98.75C123.667 98.75 124.967 98.8667 126.2 99.1C127.467 99.3333 128.717 99.65 129.95 100.05C131.183 100.45 132.433 100.9 133.7 101.4V105.05L130.2 104.4C129.167 104.033 128.017 103.7 126.75 103.4C125.483 103.1 124.117 102.95 122.65 102.95C119.983 102.95 117.65 103.55 115.65 104.75C113.683 105.917 112.15 107.567 111.05 109.7C109.983 111.833 109.45 114.333 109.45 117.2C109.45 119.833 109.933 122.217 110.9 124.35C111.867 126.45 113.317 128.117 115.25 129.35C117.217 130.583 119.633 131.2 122.5 131.2C124.1 131.2 125.583 130.967 126.95 130.5C128.35 130 129.717 129.15 131.05 127.95C131.217 127.817 131.367 127.733 131.5 127.7C131.633 127.633 131.767 127.6 131.9 127.6C132.167 127.6 132.4 127.7 132.6 127.9L134.5 130C133.167 131.533 131.45 132.817 129.35 133.85C127.283 134.883 124.767 135.4 121.8 135.4ZM129.6 103.8L133.7 105.05V109.6H131.4C131.133 109.6 130.9 109.55 130.7 109.45C130.533 109.317 130.417 109.1 130.35 108.8L129.6 103.8Z" fill="#9F855E"/>
<path d="M337.17 166.6C328.637 166.6 320.85 165.16 313.81 162.28C306.877 159.293 300.903 154.973 295.89 149.32C291.09 143.773 287.517 137.48 285.17 130.44C282.93 123.293 281.81 115.933 281.81 108.36C281.81 99.5067 283.197 91.5067 285.97 84.36C288.85 77.1067 292.797 70.92 297.81 65.8C302.93 60.5733 308.957 56.52 315.89 53.64C322.93 50.76 330.557 49.32 338.77 49.32C343.143 49.32 347.303 49.6933 351.25 50.44C355.303 51.1867 359.303 52.2 363.25 53.48C367.197 54.76 371.197 56.2 375.25 57.8V69.48L364.05 67.4C360.743 66.2267 357.063 65.16 353.01 64.2C348.957 63.24 344.583 62.76 339.89 62.76C331.357 62.76 323.89 64.68 317.49 68.52C311.197 72.2533 306.29 77.5333 302.77 84.36C299.357 91.1867 297.65 99.1867 297.65 108.36C297.65 116.787 299.197 124.413 302.29 131.24C305.383 137.96 310.023 143.293 316.21 147.24C322.503 151.187 330.237 153.16 339.41 153.16C344.53 153.16 349.277 152.413 353.65 150.92C358.13 149.32 362.503 146.6 366.77 142.76C367.303 142.333 367.783 142.067 368.21 141.96C368.637 141.747 369.063 141.64 369.49 141.64C370.343 141.64 371.09 141.96 371.73 142.6L377.81 149.32C373.543 154.227 368.05 158.333 361.33 161.64C354.717 164.947 346.663 166.6 337.17 166.6ZM362.13 65.48L375.25 69.48V84.04H367.89C367.037 84.04 366.29 83.88 365.65 83.56C365.117 83.1333 364.743 82.44 364.53 81.48L362.13 65.48Z" fill="#B99154"/>
<path d="M428.201 82.92C436.308 82.92 443.188 84.68 448.841 88.2C454.601 91.6133 459.028 96.4667 462.121 102.76C465.215 109.053 466.761 116.36 466.761 124.68C466.761 133 465.215 140.307 462.121 146.6C459.028 152.893 454.601 157.8 448.841 161.32C443.188 164.733 436.308 166.44 428.201 166.44C420.308 166.44 413.428 164.733 407.561 161.32C401.801 157.8 397.321 152.893 394.121 146.6C391.028 140.307 389.481 133 389.481 124.68C389.481 116.36 391.028 109.053 394.121 102.76C397.321 96.4667 401.801 91.6133 407.561 88.2C413.428 84.68 420.308 82.92 428.201 82.92ZM428.201 155.24C436.201 155.24 442.175 152.573 446.121 147.24C450.068 141.907 452.041 134.44 452.041 124.84C452.041 118.333 451.135 112.84 449.321 108.36C447.615 103.773 445.001 100.253 441.481 97.8C437.961 95.3467 433.535 94.12 428.201 94.12C422.761 94.12 418.228 95.4 414.601 97.96C411.081 100.413 408.468 103.933 406.761 108.52C405.055 113.107 404.201 118.547 404.201 124.84C404.201 134.12 406.175 141.533 410.121 147.08C414.068 152.52 420.095 155.24 428.201 155.24Z" fill="#B99154"/>
<path d="M489.446 165.32V96.36L480.486 95.4C479.42 95.08 478.513 94.6533 477.766 94.12C477.02 93.5867 476.646 92.7867 476.646 91.72V85.8H489.446V77.96C489.446 68.7867 491.953 61.6933 496.966 56.68C501.98 51.56 508.753 49 517.286 49C519.1 49 520.86 49.16 522.566 49.48C524.273 49.6933 525.873 50.0667 527.366 50.6L527.046 57.64C526.94 58.6 526.62 59.24 526.086 59.56C525.66 59.7733 525.073 59.88 524.326 59.88C523.58 59.88 522.833 59.88 522.086 59.88C521.34 59.88 520.54 59.88 519.686 59.88C514.353 59.88 510.3 61.3733 507.526 64.36C504.753 67.24 503.366 71.9333 503.366 78.44V85.8H526.726V96.2H503.846V165.32H489.446ZM477.926 165.32V158.76C477.926 157.8 478.14 157.053 478.566 156.52C478.993 155.88 479.633 155.507 480.486 155.4L492.486 152.84L494.246 165.32H477.926ZM499.046 165.32L500.806 152.84L512.806 155.4C513.66 155.507 514.3 155.88 514.726 156.52C515.153 157.053 515.366 157.8 515.366 158.76V165.32H499.046Z" fill="#B99154"/>
<path d="M547.541 165.32V84.2H555.701C557.301 84.2 558.421 84.52 559.061 85.16C559.701 85.6933 560.075 86.7067 560.181 88.2L561.141 100.84C563.915 95.1867 567.328 90.76 571.381 87.56C575.435 84.36 580.235 82.76 585.781 82.76C588.021 82.76 590.048 83.0267 591.861 83.56C593.675 84.0933 595.328 84.7867 596.821 85.64L595.061 96.36C594.955 97 594.635 97.48 594.101 97.8C593.675 98.12 593.141 98.28 592.501 98.28C591.755 98.28 590.315 98.0667 588.181 97.64C586.048 97.1067 584.181 96.84 582.581 96.84C577.675 96.84 573.515 98.28 570.101 101.16C566.795 104.04 564.021 108.2 561.781 113.64V165.32H547.541ZM556.981 165.32L558.741 152.84L570.741 155.4C571.595 155.507 572.235 155.88 572.661 156.52C573.088 157.053 573.301 157.8 573.301 158.76V165.32H556.981ZM536.021 165.32V158.76C536.021 157.8 536.235 157.053 536.661 156.52C537.088 155.88 537.728 155.507 538.581 155.4L550.581 152.84L552.341 165.32H536.021ZM552.341 84.2L550.581 96.68L538.581 94.12C537.728 93.9067 537.088 93.5333 536.661 93C536.235 92.4667 536.021 91.72 536.021 90.76V84.2H552.341Z" fill="#B99154"/>
<path d="M643.201 166.44C635.415 166.44 628.588 164.68 622.721 161.16C616.961 157.64 612.481 152.627 609.281 146.12C606.081 139.613 604.481 131.933 604.481 123.08C604.481 115.507 606.028 108.68 609.121 102.6C612.215 96.52 616.588 91.72 622.241 88.2C628.001 84.68 634.721 82.92 642.401 82.92C649.121 82.92 654.988 84.4133 660.001 87.4C665.015 90.3867 668.908 94.6 671.681 100.04C674.561 105.373 676.001 111.773 676.001 119.24C676.001 121.48 675.735 122.973 675.201 123.72C674.775 124.467 673.868 124.84 672.481 124.84H618.561C618.561 125.16 618.561 125.533 618.561 125.96C618.561 126.28 618.561 126.6 618.561 126.92C619.095 135.88 621.601 142.867 626.081 147.88C630.561 152.787 636.641 155.24 644.321 155.24C647.628 155.24 650.881 154.6 654.081 153.32C657.388 151.933 660.268 150.6 662.721 149.32C665.281 148.04 667.095 147.4 668.161 147.4C669.335 147.4 670.241 147.827 670.881 148.68L674.881 153.96C672.748 156.733 669.868 159.08 666.241 161C662.721 162.813 658.935 164.2 654.881 165.16C650.828 166.013 646.935 166.44 643.201 166.44ZM619.041 115.88H663.201C663.201 109.267 661.388 103.88 657.761 99.72C654.135 95.56 649.121 93.48 642.721 93.48C635.788 93.48 630.348 95.4533 626.401 99.4C622.455 103.347 620.001 108.84 619.041 115.88Z" fill="#B99154"/>
</svg>
